<?xml version="1.0" encoding="UTF-8" standalone="no"?>
<svg
   id="edcVwZ9yCfP1"
   viewBox="0 0 640 480"
   shape-rendering="geometricPrecision"
   text-rendering="geometricPrecision"
   version="1.1"
   sodipodi:docname="icon.svg"
   inkscape:version="1.1.2 (b8e25be833, 2022-02-05)"
   xmlns:inkscape="http://www.inkscape.org/namespaces/inkscape"
   xmlns:sodipodi="http://sodipodi.sourceforge.net/DTD/sodipodi-0.dtd"
   xmlns:xlink="http://www.w3.org/1999/xlink"
   xmlns="http://www.w3.org/2000/svg"
   xmlns:svg="http://www.w3.org/2000/svg">
  <sodipodi:namedview
     id="namedview38"
     pagecolor="#ffffff"
     bordercolor="#666666"
     borderopacity="1.0"
     inkscape:pageshadow="2"
     inkscape:pageopacity="0.0"
     inkscape:pagecheckerboard="0"
     showgrid="false"
     inkscape:zoom="2.4019534"
     inkscape:cx="294.96825"
     inkscape:cy="238.13951"
     inkscape:window-width="1920"
     inkscape:window-height="1017"
     inkscape:window-x="-8"
     inkscape:window-y="-8"
     inkscape:window-maximized="1"
     inkscape:current-layer="edcVwZ9yCfP1"
     inkscape:snap-page="false"
     inkscape:snap-object-midpoints="false"
     inkscape:snap-center="false"
     inkscape:lockguides="true"
     width="120px" />
  <defs
     id="defs5">
    <pattern
       inkscape:collect="always"
       xlink:href="#pattern1052"
       id="pattern2103"
       patternTransform="matrix(0.24502123,0,0,0.28956978,266.22153,166.85597)" />
    <pattern
       patternUnits="userSpaceOnUse"
       width="489.75349"
       height="379.87391"
       patternTransform="translate(73.462068,44.455591)"
       id="pattern1052">
      <g
         id="g4595"
         transform="matrix(0.97348822,0,0,1.0044446,-64.359713,-49.679151)">
        <rect
           style="opacity:1;fill:#ffffff;fill-opacity:1;stroke:#000000;stroke-opacity:0.504032"
           id="rect2041"
           width="502.09134"
           height="377.19299"
           x="66.612473"
           y="49.959324" />
        <g
           id="g1623"
           transform="matrix(1.1064729,0,0,1.1271112,-36.046871,-40.862881)">
          <path
             d="M 360.05703,116.28872 C 291.76208,234.49256 383.6,311.6216 483.22892,259.42954"
             fill="none"
             stroke="rgba(207,207,207,0.99)"
             stroke-width="1.28"
             id="path9" />
          <path
             d="M 278.50595,116.28872 C 346.80089,234.49256 254.96298,311.6216 155.33406,259.42954"
             fill="none"
             stroke="#cfcfcf"
             stroke-width="1.28"
             id="path11" />
          <path
             d="M 360.05703,116.28872 C 291.76208,234.49256 383.6,311.6216 483.22892,259.42954"
             fill="none"
             stroke="#cfcfcf"
             stroke-width="1.28"
             id="path11-8" />
          <ellipse
             rx="21.056326"
             ry="34.532326"
             stroke-width="0"
             id="ellipse13"
             cx="380.82788"
             cy="203.04079" />
          <ellipse
             rx="21.056326"
             ry="34.532326"
             stroke-width="0"
             id="ellipse15"
             cx="257.70923"
             cy="203.04079" />
          <ellipse
             rx="5.3800359"
             ry="10.534494"
             fill="#ffffff"
             stroke-width="0"
             id="ellipse17"
             cx="258.83539"
             cy="192.50629" />
          <ellipse
             rx="5.3800359"
             ry="10.534494"
             fill="#ffffff"
             stroke-width="0"
             id="ellipse19"
             cx="383.51794"
             cy="189.43198" />
          <ellipse
             rx="2.6900179"
             ry="3.074306"
             fill="#ffffff"
             stroke-width="0"
             id="ellipse21"
             cx="375.44788"
             cy="212.71486" />
          <ellipse
             rx="2.6900179"
             ry="3.074306"
             fill="#ffffff"
             stroke-width="0"
             id="ellipse23"
             cx="250.76534"
             cy="215.78917" />
          <path
             d="m 480.55396,286.28215 -43.64843,2.66844 c -17.80202,-0.31633 -48.34618,1.47797 -76.84858,-9.26479 -12.13016,-6.82298 -23.2105,-12.93281 -40.64572,-13.17168"
             fill="none"
             stroke="#000000"
             stroke-width="1.28"
             id="path25" />
          <path
             d="m 158.2685,286.28215 43.64843,2.66844 c 17.80202,-0.31633 48.34618,1.47797 76.84858,-9.26479 12.13016,-6.82298 23.21049,-12.93281 40.64572,-13.17168"
             fill="none"
             stroke="#000000"
             stroke-width="1.28"
             id="path27" />
          <path
             d="m 158.69722,286.28215 c -1.77892,26.17768 7.05896,43.60811 27.89028,60.24461 55.37006,24.29611 65.33185,20.08023 81.61891,22.67192 29.29405,3.47138 36.98687,5.99767 51.20482,4.53438"
             fill="none"
             stroke="#000000"
             stroke-width="1.28"
             id="path29" />
          <path
             d="m 480.14606,286.28215 c 1.27693,26.17768 -7.20348,43.60811 -28.03107,60.24461 -55.37006,24.29611 -65.33185,20.08023 -81.61891,22.67192 -29.29404,3.47138 -36.98687,5.99767 -51.20482,4.53438"
             fill="none"
             stroke="#000000"
             stroke-width="1.28"
             id="path31" />
          <ellipse
             rx="3.0906239"
             ry="7.2796912"
             transform="rotate(-20.342601)"
             fill="#d2dbed"
             stroke-width="0"
             id="ellipse33"
             style="fill:#b3b3b3"
             cx="188.77904"
             cy="372.89359" />
          <ellipse
             rx="3.0906227"
             ry="7.2796884"
             transform="rotate(24.215516)"
             fill="#d2dbed"
             stroke-width="0"
             id="ellipse35"
             cx="419.39322"
             cy="123.39606" />
          <path
             style="fill:#b3b3b3;stroke-width:0.588776"
             d="m 328.63539,290.75743 c -0.67469,-0.67469 -0.42922,-4.8567 0.40143,-6.8389 1.12946,-2.69528 3.83046,-5.72166 5.10648,-5.72166 3.03442,0 1.60126,7.21684 -2.25075,11.33395 -1.50247,1.60586 -2.50163,1.98214 -3.25716,1.22661 z"
             id="path153" />
          <path
             style="fill:#ff7f2a;stroke-width:0.588776"
             d="m 285.85097,370.60637 c -9.22907,-1.26379 -20.88684,-2.70804 -25.90616,-3.20945 -20.25108,-2.02298 -32.83692,-5.35019 -56.74107,-15.00012 -17.23031,-6.95576 -16.30147,-6.41108 -23.92448,-14.02953 -9.66792,-9.66214 -14.30329,-16.98244 -17.2985,-27.31827 -1.51146,-5.21573 -2.71672,-13.91118 -2.71672,-19.59993 0,-2.52666 0.22684,-3.36701 0.9877,-3.65897 0.54323,-0.20846 10.67755,0.20387 22.5207,0.91629 23.74257,1.42823 31.42041,1.53624 48.02793,0.67565 23.507,-1.21811 41.28498,-5.0128 52.98988,-11.31062 7.88383,-4.2419 14.3769,-6.99087 20.28097,-8.58636 4.97943,-1.34561 6.74045,-1.52012 15.34001,-1.52012 8.59956,0 10.36058,0.17451 15.34001,1.52012 5.90407,1.59549 12.39714,4.34446 20.28097,8.58636 11.7049,6.29782 29.48288,10.09251 52.98988,11.31062 16.60752,0.86059 24.28536,0.75258 48.02793,-0.67565 11.84315,-0.71242 22.00287,-1.11501 22.57715,-0.89464 0.94572,0.36291 1.00638,0.99695 0.64357,6.72685 -1.20322,19.00255 -6.70696,31.02898 -20.27434,44.30224 l -6.92098,6.77093 -9.07358,3.77391 c -20.62699,8.57923 -37.98024,14.25629 -49.40478,16.16263 -3.07635,0.51334 -9.73925,1.33953 -14.80642,1.83599 -5.06718,0.49646 -16.06258,1.86807 -24.43423,3.04803 -14.4655,2.03887 -16.1273,2.15348 -33.47324,2.30861 l -18.25207,0.16323 z m 45.90054,-80.40972 c 3.08948,-2.59963 5.20028,-8.34223 4.11528,-11.19599 -0.78385,-2.06169 -2.54858,-1.71192 -4.83401,0.95808 -2.97146,3.47149 -4.3911,9.3545 -2.67215,11.07346 0.99006,0.99005 1.31702,0.90949 3.39088,-0.83555 z m -21.52931,0.022 c 2.12533,-5.53851 -4.10474,-16.33904 -7.09659,-12.30275 -1.63423,2.20474 0.98976,10.97697 3.76727,12.5943 1.52697,0.88915 2.92317,0.76688 3.32932,-0.29155 z"
             id="path385" />
          <path
             style="fill:#000000"
             id="path1122"
             d="m 250.81253,173.21987 c -0.78899,-0.29576 -1.58357,-0.57546 -2.36753,-0.88456 -0.86004,-0.34544 -1.73899,-0.643 -2.62911,-0.90057 -0.6173,-0.15251 -1.23854,-0.29003 -1.85998,-0.42485 -0.35754,-0.0758 -0.71999,-0.12257 -1.08462,-0.14386 -0.04,-0.002 -0.08,-0.003 -0.12007,-0.005 0,0 -1.26168,0.91189 -1.26168,0.91189 v 0 c 0.0399,4.7e-4 0.0797,9.4e-4 0.1196,0.001 0.36459,0.01 0.72815,0.0429 1.08675,0.1118 0.62464,0.12339 1.24368,0.27322 1.86588,0.40809 0.89421,0.24124 1.77752,0.52794 2.63556,0.87742 0.7744,0.30518 1.55682,0.59006 2.32554,0.90911 0,0 1.28966,-0.86133 1.28966,-0.86133 z" />
          <path
             style="fill:#000000"
             id="path1124"
             d="m 248.45102,173.34813 c -0.50546,-0.10935 -0.99294,-0.2902 -1.48066,-0.45987 -0.32921,-0.11922 -0.67165,-0.19353 -1.00794,-0.28879 -0.43749,-0.12105 -0.88292,-0.20878 -1.32509,-0.30996 -0.33719,-0.0814 -0.65847,-0.21263 -0.98606,-0.32413 -0.31213,-0.12081 -0.63935,-0.18752 -0.96463,-0.26089 -0.21571,-0.0511 -0.43508,-0.0811 -0.65562,-0.10056 0,0 -1.26629,0.9064 -1.26629,0.9064 v 0 c 0.21739,0.0116 0.43437,0.0319 0.64751,0.0784 0.32193,0.0696 0.64793,0.12809 0.95631,0.24735 0.33441,0.10758 0.6583,0.24579 0.99954,0.33226 0.43736,0.10206 0.88127,0.17594 1.31175,0.30707 0.33558,0.106 0.68404,0.16271 1.01804,0.2749 0.49026,0.16414 0.97631,0.34339 1.47343,0.4855 0,0 1.27971,-0.88767 1.27971,-0.88767 z" />
          <path
             style="fill:#000000"
             id="path1126"
             d="m 247.10623,173.54455 c -0.81558,-0.2498 -1.64255,-0.45625 -2.45115,-0.73045 -0.51069,-0.1688 -1.01208,-0.36145 -1.51034,-0.56336 -0.27465,-0.11663 -0.56304,-0.19538 -0.85236,-0.26587 -0.22672,-0.0658 -0.45338,-0.1266 -0.68729,-0.16014 -0.034,-0.005 -0.068,-0.0107 -0.10196,-0.0161 0,0 -1.27868,0.8909 -1.27868,0.8909 v 0 c 0.0363,0.009 0.0727,0.0175 0.10905,0.0262 0.23241,0.0219 0.46001,0.0675 0.6809,0.14477 0.28659,0.0601 0.57092,0.13806 0.84521,0.24062 0.50787,0.20409 1.02269,0.38718 1.54519,0.5506 0.79637,0.26732 1.61055,0.47328 2.40518,0.74416 0,0 1.29625,-0.86135 1.29625,-0.86135 z" />
          <path
             style="fill:#000000"
             id="path1128"
             d="m 252.74171,171.56951 c -0.454,-0.2008 -0.90228,-0.41315 -1.36147,-0.60197 -0.39361,-0.17296 -0.80809,-0.28186 -1.22069,-0.39702 -0.40982,-0.12694 -0.81202,-0.2765 -1.21386,-0.4263 -0.31429,-0.12482 -0.6208,-0.26597 -0.9473,-0.35653 -0.24215,-0.0576 -0.48543,-0.10626 -0.7306,-0.14885 -0.17411,-0.037 -0.34931,-0.0673 -0.5255,-0.0923 0,0 -1.27023,0.89884 -1.27023,0.89884 v 0 c 0.17485,0.0191 0.3491,0.0432 0.52077,0.0824 0.24079,0.0529 0.48607,0.0857 0.72596,0.14277 0.32978,0.0722 0.63591,0.20678 0.94604,0.33743 0.40679,0.14522 0.8097,0.30131 1.22067,0.43495 0.408,0.11972 0.82391,0.21242 1.21679,0.37962 0.45422,0.18296 0.89986,0.38415 1.33795,0.60325 0,0 1.30147,-0.85632 1.30147,-0.85632 z" />
          <path
             style="fill:#000000"
             id="path1130"
             d="m 251.3552,170.42666 c -0.51236,-0.16583 -1.01966,-0.3426 -1.54222,-0.47496 -0.3369,-0.082 -0.66857,-0.18013 -0.98875,-0.31335 -0.27049,-0.11741 -0.55064,-0.20875 -0.82885,-0.30541 -0.21849,-0.0674 -0.44014,-0.12404 -0.6597,-0.18799 -0.13856,-0.0446 -0.0701,-0.0211 -0.20548,-0.0706 0,0 -1.29424,0.86704 -1.29424,0.86704 v 0 c 0.14041,0.0608 0.0699,0.0345 0.21121,0.0795 0.21559,0.0763 0.44055,0.12411 0.66086,0.18463 0.27787,0.0916 0.55586,0.18206 0.82659,0.29365 0.32832,0.13894 0.66187,0.25489 1.01222,0.32789 0.52143,0.11669 1.02803,0.27768 1.52398,0.47672 0,0 1.28438,-0.87712 1.28438,-0.87712 z" />
          <path
             style="fill:#000000"
             id="path1132"
             d="m 251.25803,171.03772 c -0.5495,-0.24179 -1.10459,-0.47384 -1.66212,-0.69726 -0.43607,-0.18713 -0.89838,-0.29207 -1.35643,-0.40782 -0.31484,-0.0977 -0.64069,-0.14704 -0.96323,-0.21086 -0.27058,-0.0338 -0.52364,-0.1292 -0.77498,-0.2296 0,0 -1.29502,0.86421 -1.29502,0.86421 v 0 c 0.25508,0.11266 0.52082,0.21348 0.79806,0.25239 0.32107,0.0624 0.64661,0.10685 0.95937,0.20513 0.45948,0.10711 0.92516,0.19664 1.36382,0.37637 0.54972,0.21907 1.09942,0.44595 1.63233,0.70162 0,0 1.2982,-0.85418 1.2982,-0.85418 z" />
          <path
             style="fill:#000000"
             id="path1134"
             d="m 252.40142,170.23115 c -0.49495,-0.0196 -0.98089,-0.11233 -1.46784,-0.19442 -0.42609,-0.0411 -0.83508,-0.15067 -1.23502,-0.29855 -0.28349,-0.10777 -0.5719,-0.2011 -0.85739,-0.30312 -0.22135,-0.068 -0.4465,-0.12286 -0.66919,-0.18642 -0.23902,-0.071 -0.47664,-0.14741 -0.71225,-0.22913 -0.0375,-0.0119 -0.0751,-0.0239 -0.11259,-0.0358 0,0 -1.28586,0.87844 -1.28586,0.87844 v 0 c 0.0365,0.0102 0.0731,0.0203 0.10966,0.0305 0.23709,0.0796 0.47344,0.16159 0.7132,0.23261 0.21822,0.0758 0.44578,0.12251 0.66872,0.18211 0.28873,0.0956 0.57609,0.1948 0.86361,0.29494 0.40752,0.14963 0.81899,0.28889 1.25598,0.31999 0.48537,0.0764 0.96788,0.17307 1.45869,0.21054 0,0 1.27028,-0.90161 1.27028,-0.90161 z" />
          <path
             style="fill:#000000"
             id="path1136"
             d="m 255.85259,169.58298 c -0.55471,-0.27857 -1.12537,-0.52623 -1.69415,-0.77486 -0.45843,-0.18475 -0.91023,-0.38582 -1.38191,-0.53505 -0.25359,-0.0802 -0.5073,-0.16007 -0.76209,-0.23632 -0.17491,-0.042 -0.34653,-0.0955 -0.5219,-0.13562 0,0 -1.27925,0.89068 -1.27925,0.89068 v 0 c 0.17554,0.0313 0.34299,0.0872 0.51642,0.12594 0.25894,0.067 0.51215,0.15514 0.76936,0.22859 0.47654,0.13035 0.92702,0.33038 1.38611,0.51058 0.5643,0.23506 1.13011,0.47757 1.66421,0.77543 0,0 1.3032,-0.84937 1.3032,-0.84937 z" />
          <path
             style="fill:#000000"
             id="path1138"
             d="m 254.38369,169.4971 c -0.39467,-0.082 -0.77298,-0.22036 -1.15477,-0.34626 -0.28982,-0.10495 -0.57719,-0.21677 -0.8651,-0.32698 -0.23617,-0.10367 -0.47652,-0.19541 -0.71957,-0.28132 -0.21175,-0.0919 -0.42594,-0.17518 -0.6233,-0.29563 -0.0299,-0.0168 -0.0599,-0.0336 -0.0899,-0.0504 0,0 -1.30484,0.85432 -1.30484,0.85432 v 0 c 0.0284,0.014 0.0568,0.0281 0.0853,0.0421 0.20667,0.12552 0.42078,0.2229 0.64284,0.31909 0.2406,0.0916 0.48813,0.16526 0.71969,0.28039 0.29334,0.10618 0.58407,0.21857 0.87588,0.32882 0.38582,0.11804 0.76365,0.26053 1.15407,0.36352 0,0 1.2797,-0.88767 1.2797,-0.88767 z" />
          <path
             style="fill:#000000"
             id="path1140"
             d="m 255.52859,169.18485 c -0.43294,-0.0679 -0.8528,-0.19608 -1.2723,-0.3196 -0.40029,-0.12726 -0.78506,-0.29727 -1.17065,-0.46263 -0.26326,-0.10314 -0.52235,-0.21462 -0.78045,-0.33004 -0.22562,-0.0788 -0.41522,-0.22527 -0.62849,-0.32832 -0.0327,-0.0123 -0.0655,-0.0245 -0.0982,-0.0368 0,0 -1.28972,0.87704 -1.28972,0.87704 v 0 c 0.03,0.008 0.0599,0.0158 0.0898,0.0237 0.22294,0.0857 0.40301,0.24742 0.63123,0.32304 0.25825,0.12104 0.51844,0.23508 0.78768,0.32977 0.39122,0.16785 0.7846,0.33166 1.18516,0.47591 0.41998,0.11918 0.83683,0.2538 1.26624,0.3356 0,0 1.2797,-0.88767 1.2797,-0.88767 z" />
          <path
             style="fill:#000000"
             id="path1142"
             d="m 255.30254,169.26637 c -0.43117,-0.21449 -0.83921,-0.4717 -1.26876,-0.68925 -0.29721,-0.12359 -0.57778,-0.27929 -0.85865,-0.43525 -0.2247,-0.14563 -0.46804,-0.25762 -0.70194,-0.38661 -0.1793,-0.11464 -0.36639,-0.20666 -0.56645,-0.27811 0,0 -1.29321,0.87061 -1.29321,0.87061 v 0 c 0.19109,0.0746 0.38444,0.13416 0.55386,0.2561 0.23103,0.137 0.48666,0.23069 0.70596,0.38878 0.2875,0.15039 0.56598,0.31874 0.86996,0.43587 0.43725,0.20223 0.85076,0.45179 1.2655,0.69596 0,0 1.29373,-0.8581 1.29373,-0.8581 z" />
          <path
             style="fill:#000000"
             id="path1144"
             d="m 247.44991,174.19565 c -0.66006,-0.18916 -1.31594,-0.39195 -1.96183,-0.62511 -0.53462,-0.22597 -1.0405,-0.50885 -1.57993,-0.72458 -0.42552,-0.1576 -0.85827,-0.2955 -1.27689,-0.47115 -0.33615,-0.1489 -0.67782,-0.28431 -1.02252,-0.41188 -0.28673,-0.12774 -0.59338,-0.17953 -0.9002,-0.23064 0,0 -1.80948,1.2588 -1.80948,1.2588 v 0 c 0.29247,0.0722 0.60255,0.0706 0.88168,0.19961 0.33953,0.13659 0.68943,0.24773 1.02317,0.39983 0.417,0.1899 0.8551,0.32348 1.28582,0.47796 0.55041,0.19927 1.06216,0.47925 1.59632,0.71598 0.63789,0.24258 1.29307,0.4359 1.94178,0.64744 0,0 1.82208,-1.23626 1.82208,-1.23626 z" />
          <path
             style="fill:#000000"
             id="path1148"
             d="m 247.192,175.64474 c -0.5208,-0.33322 -1.0618,-0.63378 -1.5779,-0.97449 -0.41532,-0.24841 -0.83292,-0.49283 -1.25474,-0.73006 -0.48772,-0.30595 -0.97917,-0.60047 -1.50073,-0.84464 -0.38726,-0.13377 -0.73788,-0.34793 -1.11714,-0.49936 -0.24712,-0.11989 -0.50028,-0.20842 -0.77088,-0.25469 -0.15806,-0.0263 -0.31135,-0.0738 -0.4675,-0.1094 0,0 -1.81148,1.26226 -1.81148,1.26226 v 0 c 0.16207,0.0277 0.32115,0.0655 0.47656,0.12015 0.26345,0.0253 0.51438,0.0813 0.74755,0.21332 0.38775,0.12628 0.72728,0.35684 1.11811,0.47674 0.52028,0.23576 1.01949,0.50501 1.49119,0.82974 0.41805,0.23527 0.82552,0.48627 1.24569,0.71804 0.5128,0.33499 1.05753,0.61997 1.56144,0.96872 0,0 1.85983,-1.17633 1.85983,-1.17633 z" />
          <path
             style="fill:#000000"
             id="path1150"
             d="m 248.01466,174.0029 c -0.70908,-0.44413 -1.40506,-0.90451 -2.13617,-1.31226 -0.52475,-0.28214 -1.06635,-0.53756 -1.62054,-0.75692 -0.40976,-0.16745 -0.81848,-0.33674 -1.2327,-0.49301 -0.32578,-0.1447 -0.65695,-0.27497 -0.99259,-0.39478 0,0 -1.81882,1.23143 -1.81882,1.23143 v 0 c 0.33673,0.11166 0.66996,0.23588 0.99119,0.38706 0.41368,0.15948 0.827,0.3189 1.23477,0.4931 0.55679,0.19704 1.09287,0.45487 1.61939,0.72052 0.73155,0.39268 1.43462,0.82879 2.11102,1.31138 0,0 1.84445,-1.18652 1.84445,-1.18652 z" />
          <path
             style="fill:#000000"
             id="path1152"
             d="m 247.33855,173.32455 c -0.45886,-0.19584 -0.92137,-0.38315 -1.3857,-0.56564 -0.48202,-0.19447 -0.96415,-0.38923 -1.45554,-0.55901 -0.23587,-0.0806 -0.47213,-0.16044 -0.70516,-0.249 -0.15458,-0.0661 -0.31276,-0.12448 -0.46551,-0.19476 -0.0891,-0.041 -0.1797,-0.0783 -0.26949,-0.11758 -0.0857,-0.0326 -0.16995,-0.0686 -0.25549,-0.10146 -0.0925,-0.0341 -0.17845,-0.0829 -0.26464,-0.13023 -0.0655,-0.04 -0.12963,-0.0824 -0.19262,-0.12622 -0.0311,-0.026 -0.0157,-0.013 -0.0462,-0.039 0,0 -0.33005,0.2063 -0.33005,0.2063 v 0 c 0.0316,0.026 0.0154,0.0123 0.0485,0.0413 0.0639,0.0455 0.13045,0.0873 0.1968,0.12902 0.0881,0.0466 0.17394,0.0986 0.2669,0.13516 0.0857,0.0307 0.16853,0.0689 0.2544,0.0993 0.0896,0.0405 0.18129,0.0762 0.27126,0.11597 0.15477,0.0699 0.31595,0.12503 0.4712,0.19396 0.2356,0.0891 0.47596,0.16522 0.7151,0.24409 0.49845,0.16101 0.98866,0.34575 1.47318,0.54474 0.45542,0.18235 0.91183,0.36409 1.35007,0.58553 0,0 0.32292,-0.21248 0.32292,-0.21248 z" />
          <path
             style="fill:#000000"
             id="path1154"
             d="m 242.96098,171.06931 c -0.0948,-0.042 -0.18882,-0.0856 -0.2857,-0.12264 -0.0738,-0.0293 -0.1524,-0.0402 -0.22945,-0.057 -0.0318,-0.008 -0.0632,-0.0166 -0.0948,-0.0249 0,0 -0.32012,0.22078 -0.32012,0.22078 v 0 c 0.0321,0.008 0.064,0.0157 0.0954,0.026 0.0765,0.0165 0.15458,0.0253 0.22895,0.0507 0.096,0.0343 0.18847,0.0771 0.28037,0.12109 0,0 0.32536,-0.21408 0.32536,-0.21408 z" />
          <path
             style="fill:#000000"
             id="path1156"
             d="m 242.95809,170.91094 c -0.0914,-0.0439 -0.18264,-0.0882 -0.27558,-0.12869 -0.0405,-0.0209 -0.0817,-0.0388 -0.12513,-0.0525 0,0 -0.32085,0.21996 -0.32085,0.21996 v 0 c 0.0436,0.0106 0.0847,0.0257 0.12406,0.0476 0.0927,0.0369 0.18253,0.0814 0.2717,0.12603 0,0 0.3258,-0.21234 0.3258,-0.21234 z" />
          <path
             style="fill:#000000"
             id="path1158"
             d="m 249.55988,171.66444 c -0.18823,-0.0876 -0.37037,-0.18747 -0.55561,-0.28112 -0.14637,-0.0752 -0.29395,-0.14736 -0.44491,-0.21295 -0.13378,-0.0561 -0.26836,-0.11032 -0.40303,-0.16427 -0.10694,-0.0393 -0.21438,-0.0772 -0.31965,-0.12085 -0.14637,-0.0666 -0.2973,-0.12234 -0.44704,-0.18076 -0.12764,-0.0517 -0.25357,-0.10756 -0.38163,-0.15821 -0.11288,-0.0445 -0.22653,-0.0868 -0.33948,-0.13104 -0.10893,-0.0439 -0.22012,-0.0817 -0.33032,-0.12219 -0.10243,-0.038 -0.20048,-0.0864 -0.30346,-0.12289 -0.0718,-0.0285 -0.1475,-0.041 -0.22308,-0.0542 -0.0325,-0.006 -0.0643,-0.0144 -0.0962,-0.023 0,0 -0.32036,0.21998 -0.32036,0.21998 v 0 c 0.0325,0.009 0.0645,0.0197 0.0978,0.0254 0.0739,0.0158 0.15068,0.0195 0.22136,0.0494 0.10463,0.0324 0.20262,0.081 0.30459,0.12051 0.10981,0.0412 0.22119,0.078 0.33003,0.12176 0.1133,0.0433 0.2263,0.0871 0.33942,0.13091 0.12926,0.0498 0.25642,0.10479 0.38508,0.15613 0.14935,0.0568 0.29826,0.11516 0.44364,0.1816 0.1049,0.0449 0.21133,0.0862 0.31965,0.1221 0.13581,0.0514 0.27032,0.10631 0.40477,0.16119 0.1503,0.0665 0.29917,0.13592 0.44584,0.21016 0.18566,0.0905 0.36907,0.18577 0.54915,0.28697 0,0 0.32343,-0.21453 0.32343,-0.21453 z" />
          <path
             style="fill:#000000"
             id="path1160"
             d="m 249.45866,171.82277 c -0.22895,-0.0873 -0.45418,-0.18378 -0.67999,-0.27876 -0.17771,-0.0828 -0.3628,-0.14764 -0.54328,-0.22381 -0.13151,-0.0519 -0.26194,-0.10647 -0.39411,-0.15667 -0.12521,-0.0464 -0.24789,-0.0991 -0.37212,-0.14804 -0.1289,-0.0533 -0.25878,-0.104 -0.38732,-0.15821 -0.13325,-0.0492 -0.2638,-0.10506 -0.39534,-0.15856 -0.12394,-0.0497 -0.24719,-0.10102 -0.37085,-0.15135 -0.0822,-0.0314 -0.16482,-0.0615 -0.24708,-0.0926 -0.0625,-0.0258 -0.12696,-0.0475 -0.18849,-0.0756 -0.055,-0.0222 -0.10887,-0.0479 -0.16525,-0.0665 -0.0442,-0.0146 -0.085,-0.0368 -0.12914,-0.0516 -0.0331,-0.009 -0.0164,-0.005 -0.0501,-0.0111 0,0 -0.31886,0.22437 -0.31886,0.22437 v 0 c 0.0317,0.004 0.016,10e-4 0.047,0.007 0.0456,0.0115 0.0861,0.0336 0.12934,0.0516 0.0563,0.0142 0.10776,0.0411 0.16223,0.0607 0.0613,0.0316 0.12798,0.051 0.19151,0.0776 0.0822,0.0323 0.16532,0.0619 0.24876,0.0908 0.12428,0.0496 0.24831,0.0999 0.37229,0.15026 0.13154,0.0534 0.2616,0.11047 0.39547,0.15797 0.12865,0.0536 0.25754,0.10648 0.38614,0.16015 0.12494,0.0483 0.24846,0.10001 0.37378,0.14735 0.13189,0.0501 0.26199,0.10463 0.39356,0.15555 0.18266,0.0753 0.37072,0.13684 0.5506,0.219 0.22439,0.0919 0.44822,0.18532 0.66833,0.28715 0,0 0.32292,-0.21634 0.32292,-0.21634 z" />
          <path
             style="fill:#000000"
             id="path1162"
             d="m 255.24786,168.95258 c -0.13097,-0.0908 -0.26763,-0.17193 -0.41062,-0.24221 -0.17565,-0.0844 -0.35808,-0.15353 -0.53772,-0.22884 -0.20095,-0.0783 -0.39428,-0.17392 -0.58988,-0.2643 -0.18414,-0.0914 -0.36533,-0.18841 -0.54898,-0.28072 -0.13923,-0.071 -0.28689,-0.12404 -0.43285,-0.17935 -0.14506,-0.0553 -0.28709,-0.11797 -0.43344,-0.16995 -0.0769,-0.0239 -0.0393,-0.0132 -0.11276,-0.0323 0,0 -0.4512,0.3122 -0.4512,0.3122 v 0 c 0.0725,0.0152 0.0353,0.006 0.1115,0.0267 0.14778,0.0477 0.2892,0.11098 0.43331,0.16816 0.1454,0.0527 0.29104,0.10748 0.43059,0.17402 0.18576,0.0904 0.36967,0.1844 0.55309,0.27955 0.19542,0.0916 0.38895,0.18726 0.58978,0.26676 0.17831,0.0755 0.35964,0.14426 0.53435,0.22785 0.14051,0.0661 0.27454,0.14455 0.39988,0.23645 0,0 0.46495,-0.29409 0.46495,-0.29409 z" />
          <path
             style="fill:#000000"
             id="path1164"
             d="m 255.71559,168.84992 c -0.19808,-0.0478 -0.38881,-0.12163 -0.57995,-0.19134 -0.18978,-0.0746 -0.38044,-0.14714 -0.56783,-0.2277 -0.20636,-0.0838 -0.41431,-0.16327 -0.62146,-0.24506 -0.20141,-0.0899 -0.40925,-0.16345 -0.61743,-0.23574 -0.16576,-0.0617 -0.33115,-0.12474 -0.49438,-0.1929 -0.12066,-0.0482 -0.24086,-0.0978 -0.36073,-0.14798 -0.11739,-0.0423 -0.23619,-0.0816 -0.35686,-0.11357 0,0 -0.45094,0.31113 -0.45094,0.31113 v 0 c 0.11963,0.0278 0.23556,0.0688 0.35225,0.10676 0.12042,0.0496 0.2404,0.1001 0.3622,0.1463 0.16383,0.0718 0.33393,0.12909 0.50087,0.19317 0.20796,0.0719 0.41549,0.14522 0.61735,0.23325 0.2065,0.08 0.4112,0.1645 0.61719,0.24576 0.18861,0.081 0.38058,0.1537 0.57159,0.22879 0.19105,0.07 0.38193,0.14068 0.57568,0.20297 0,0 0.45245,-0.31384 0.45245,-0.31384 z" />
          <path
             style="fill:#000000"
             id="path1166"
             d="m 256.0064,168.88418 c -0.30251,-0.10453 -0.6027,-0.21647 -0.90328,-0.32668 -0.35673,-0.13682 -0.71544,-0.26837 -1.07277,-0.40357 -0.25656,-0.1021 -0.51883,-0.18926 -0.77548,-0.29102 -0.1601,-0.057 -0.31954,-0.11602 -0.48085,-0.16962 -0.15209,-0.0418 -0.30497,-0.0806 -0.45842,-0.11701 -0.0565,-0.0136 -0.11385,-0.0231 -0.17126,-0.0319 0,0 -0.44847,0.31663 -0.44847,0.31663 v 0 c 0.057,0.007 0.11402,0.0141 0.17017,0.0266 0.15314,0.0342 0.30534,0.0723 0.45726,0.11162 0.16112,0.0532 0.32015,0.11221 0.48108,0.16602 0.25986,0.10011 0.52672,0.18148 0.78538,0.28505 0.35797,0.13545 0.7185,0.26409 1.07545,0.40222 0.29683,0.11103 0.59527,0.21792 0.88709,0.34178 0,0 0.4541,-0.31011 0.4541,-0.31011 z" />
          <path
             style="fill:#000000"
             id="path1122-3"
             d="m 388.29886,173.74732 c 0.78899,-0.29576 1.58357,-0.57546 2.36753,-0.88456 0.86004,-0.34544 1.73899,-0.643 2.62911,-0.90057 0.6173,-0.15251 1.23854,-0.29003 1.85998,-0.42485 0.35754,-0.0758 0.71999,-0.12257 1.08462,-0.14386 0.04,-0.002 0.08,-0.003 0.12007,-0.005 0,0 1.26168,0.91189 1.26168,0.91189 v 0 c -0.0399,4.7e-4 -0.0797,9.4e-4 -0.1196,0.001 -0.36459,0.01 -0.72815,0.0429 -1.08675,0.1118 -0.62464,0.12339 -1.24368,0.27322 -1.86588,0.40809 -0.89421,0.24124 -1.77752,0.52794 -2.63556,0.87742 -0.7744,0.30518 -1.55682,0.59006 -2.32554,0.90911 0,0 -1.28966,-0.86133 -1.28966,-0.86133 z" />
          <path
             style="fill:#000000"
             id="path1124-8"
             d="m 390.66038,173.87559 c 0.50545,-0.10935 0.99293,-0.2902 1.48066,-0.45987 0.32921,-0.11922 0.67165,-0.19353 1.00794,-0.28879 0.43749,-0.12105 0.88292,-0.20878 1.32508,-0.30996 0.33719,-0.0814 0.65847,-0.21263 0.98607,-0.32413 0.31213,-0.12081 0.63935,-0.18752 0.96462,-0.26089 0.21572,-0.0511 0.43509,-0.0811 0.65562,-0.10056 0,0 1.2663,0.9064 1.2663,0.9064 v 0 c -0.2174,0.0116 -0.43437,0.0319 -0.64752,0.0784 -0.32193,0.0696 -0.64792,0.12809 -0.95631,0.24735 -0.33439,0.10758 -0.65829,0.24579 -0.99954,0.33226 -0.43736,0.10206 -0.88126,0.17594 -1.31175,0.30707 -0.33557,0.106 -0.68404,0.16271 -1.01804,0.2749 -0.49025,0.16414 -0.97631,0.34339 -1.47343,0.4855 0,0 -1.2797,-0.88767 -1.2797,-0.88767 z" />
          <path
             style="fill:#000000"
             id="path1126-1"
             d="m 392.00517,174.07199 c 0.81558,-0.2498 1.64255,-0.45626 2.45115,-0.73045 0.51069,-0.16881 1.01208,-0.36145 1.51034,-0.56336 0.27465,-0.11663 0.56304,-0.19538 0.85235,-0.26587 0.22672,-0.0658 0.45338,-0.1266 0.6873,-0.16014 0.034,-0.005 0.068,-0.0107 0.10196,-0.0161 0,0 1.27868,0.8909 1.27868,0.8909 v 0 c -0.0363,0.009 -0.0727,0.0175 -0.10905,0.0262 -0.23242,0.0219 -0.46001,0.0675 -0.6809,0.14477 -0.28659,0.0601 -0.57092,0.13806 -0.84522,0.24063 -0.50787,0.20409 -1.02269,0.38718 -1.54518,0.5506 -0.79638,0.26732 -1.61055,0.47327 -2.40518,0.74416 0,0 -1.29625,-0.86136 -1.29625,-0.86136 z" />
          <path
             style="fill:#000000"
             id="path1128-3"
             d="m 386.36968,172.09695 c 0.45401,-0.20079 0.90229,-0.41314 1.36147,-0.60197 0.39362,-0.17295 0.80809,-0.28185 1.22069,-0.39702 0.40983,-0.12693 0.81203,-0.2765 1.21386,-0.4263 0.3143,-0.12482 0.6208,-0.26597 0.9473,-0.35652 0.24215,-0.0576 0.48543,-0.10626 0.7306,-0.14885 0.17411,-0.037 0.34931,-0.0673 0.5255,-0.0923 0,0 1.27024,0.89884 1.27024,0.89884 v 0 c -0.17485,0.0191 -0.34911,0.0432 -0.52078,0.0824 -0.24079,0.0529 -0.48606,0.0857 -0.72596,0.14277 -0.32978,0.0722 -0.63591,0.20678 -0.94603,0.33743 -0.40679,0.14522 -0.80971,0.30131 -1.22067,0.43494 -0.408,0.11973 -0.82391,0.21243 -1.21679,0.37963 -0.45422,0.18296 -0.89986,0.38415 -1.33795,0.60325 0,0 -1.30147,-0.85632 -1.30147,-0.85632 z" />
          <path
             style="fill:#000000"
             id="path1130-9"
             d="m 387.75619,170.95411 c 0.51236,-0.16583 1.01966,-0.3426 1.54222,-0.47496 0.3369,-0.082 0.66857,-0.18013 0.98875,-0.31335 0.27049,-0.11741 0.55064,-0.20875 0.82885,-0.30541 0.21849,-0.0674 0.44014,-0.12404 0.6597,-0.18799 0.13856,-0.0446 0.0701,-0.0211 0.20548,-0.0706 0,0 1.29424,0.86703 1.29424,0.86703 v 0 c -0.14041,0.0608 -0.0699,0.0345 -0.21121,0.0795 -0.21559,0.0763 -0.44055,0.12411 -0.66086,0.18463 -0.27787,0.0916 -0.55586,0.18206 -0.82659,0.29366 -0.32832,0.13894 -0.66187,0.25489 -1.01222,0.32789 -0.52143,0.11669 -1.02803,0.27768 -1.52398,0.47672 0,0 -1.28438,-0.87712 -1.28438,-0.87712 z" />
          <path
             style="fill:#000000"
             id="path1132-2"
             d="m 387.85336,171.56517 c 0.5495,-0.24179 1.10459,-0.47384 1.66212,-0.69726 0.43607,-0.18713 0.89838,-0.29207 1.35643,-0.40782 0.31484,-0.0977 0.64069,-0.14704 0.96323,-0.21086 0.27058,-0.0338 0.52364,-0.1292 0.77498,-0.2296 0,0 1.29502,0.86421 1.29502,0.86421 v 0 c -0.25508,0.11266 -0.52082,0.21348 -0.79806,0.25239 -0.32107,0.0624 -0.64661,0.10685 -0.95937,0.20513 -0.45948,0.10711 -0.92516,0.19664 -1.36382,0.37637 -0.54972,0.21907 -1.09942,0.44595 -1.63233,0.70162 0,0 -1.2982,-0.85418 -1.2982,-0.85418 z" />
          <path
             style="fill:#000000"
             id="path1134-9"
             d="m 386.70997,170.7586 c 0.49495,-0.0196 0.98089,-0.11233 1.46784,-0.19442 0.42609,-0.0411 0.83508,-0.15067 1.23502,-0.29855 0.28349,-0.10777 0.57191,-0.2011 0.85739,-0.30312 0.22135,-0.068 0.44651,-0.12286 0.6692,-0.18642 0.23901,-0.071 0.47663,-0.14741 0.71224,-0.22913 0.0375,-0.0119 0.0751,-0.0239 0.1126,-0.0358 0,0 1.28586,0.87844 1.28586,0.87844 v 0 c -0.0365,0.0102 -0.0731,0.0203 -0.10966,0.0305 -0.2371,0.0796 -0.47344,0.16159 -0.7132,0.23261 -0.21822,0.0758 -0.44578,0.12251 -0.66872,0.18211 -0.28873,0.0956 -0.57609,0.1948 -0.86361,0.29494 -0.40752,0.14963 -0.81899,0.28889 -1.25598,0.31999 -0.48537,0.0764 -0.96788,0.17307 -1.45869,0.21054 0,0 -1.27028,-0.90161 -1.27028,-0.90161 z" />
          <path
             style="fill:#000000"
             id="path1136-1"
             d="m 383.2588,170.11043 c 0.55471,-0.27857 1.12537,-0.52623 1.69415,-0.77486 0.45843,-0.18475 0.91023,-0.38582 1.38191,-0.53505 0.25359,-0.0802 0.5073,-0.16007 0.76209,-0.23632 0.17491,-0.042 0.34653,-0.0955 0.5219,-0.13562 0,0 1.27925,0.89068 1.27925,0.89068 v 0 c -0.17554,0.0313 -0.34299,0.0872 -0.51642,0.12594 -0.25894,0.067 -0.51215,0.15514 -0.76936,0.22859 -0.47654,0.13035 -0.92702,0.33038 -1.38611,0.51058 -0.5643,0.23506 -1.13011,0.47757 -1.66421,0.77543 0,0 -1.3032,-0.84937 -1.3032,-0.84937 z" />
          <path
             style="fill:#000000"
             id="path1138-5"
             d="m 384.7277,170.02455 c 0.39467,-0.082 0.77298,-0.22036 1.15477,-0.34626 0.28982,-0.10495 0.57719,-0.21677 0.8651,-0.32698 0.23617,-0.10367 0.47652,-0.19541 0.71957,-0.28132 0.21175,-0.0919 0.42594,-0.17518 0.6233,-0.29563 0.0299,-0.0168 0.0599,-0.0336 0.0899,-0.0504 0,0 1.30484,0.85432 1.30484,0.85432 v 0 c -0.0284,0.014 -0.0568,0.0281 -0.0853,0.0421 -0.20667,0.12552 -0.42078,0.2229 -0.64284,0.31909 -0.2406,0.0916 -0.48813,0.16526 -0.71969,0.28039 -0.29334,0.10618 -0.58407,0.21857 -0.87588,0.32882 -0.38582,0.11804 -0.76365,0.26053 -1.15407,0.36352 0,0 -1.2797,-0.88767 -1.2797,-0.88767 z" />
          <path
             style="fill:#000000"
             id="path1140-2"
             d="m 383.5828,169.7123 c 0.43295,-0.0679 0.8528,-0.19608 1.27231,-0.3196 0.40028,-0.12725 0.78505,-0.29727 1.17064,-0.46262 0.26327,-0.10314 0.52237,-0.21463 0.78046,-0.33004 0.22562,-0.0788 0.41522,-0.22528 0.62849,-0.32833 0.0327,-0.0123 0.0655,-0.0245 0.0982,-0.0368 0,0 1.28972,0.87704 1.28972,0.87704 v 0 c -0.03,0.008 -0.0599,0.0158 -0.0898,0.0237 -0.22294,0.0857 -0.40301,0.24741 -0.63123,0.32303 -0.25825,0.12104 -0.51843,0.23508 -0.78767,0.32977 -0.39123,0.16785 -0.78461,0.33166 -1.18516,0.47591 -0.41998,0.11918 -0.83684,0.25381 -1.26624,0.3356 0,0 -1.27971,-0.88767 -1.27971,-0.88767 z" />
          <path
             style="fill:#000000"
             id="path1142-3"
             d="m 383.80886,169.79382 c 0.43117,-0.21449 0.8392,-0.4717 1.26875,-0.68926 0.29722,-0.12358 0.57779,-0.27927 0.85866,-0.43524 0.22469,-0.14563 0.46803,-0.25761 0.70193,-0.3866 0.1793,-0.11464 0.3664,-0.20666 0.56645,-0.27812 0,0 1.29321,0.87061 1.29321,0.87061 v 0 c -0.19109,0.0746 -0.38444,0.13415 -0.55386,0.25609 -0.23103,0.13701 -0.48666,0.2307 -0.70596,0.38878 -0.2875,0.1504 -0.56598,0.31875 -0.86996,0.43588 -0.43725,0.20222 -0.85076,0.45178 -1.2655,0.69596 0,0 -1.29372,-0.85811 -1.29372,-0.8581 z" />
          <path
             style="fill:#000000"
             id="path1144-1"
             d="m 391.66148,174.7231 c 0.66006,-0.18916 1.31594,-0.39195 1.96183,-0.62511 0.53462,-0.22597 1.0405,-0.50885 1.57993,-0.72458 0.42552,-0.1576 0.85827,-0.2955 1.27689,-0.47115 0.33615,-0.1489 0.67782,-0.28431 1.02252,-0.41188 0.28672,-0.12774 0.59338,-0.17953 0.9002,-0.23064 0,0 1.80948,1.2588 1.80948,1.2588 v 0 c -0.29247,0.0722 -0.60255,0.0706 -0.88169,0.19961 -0.33953,0.13659 -0.68943,0.24773 -1.02317,0.39983 -0.41699,0.1899 -0.85509,0.32348 -1.28582,0.47796 -0.55041,0.19927 -1.06216,0.47926 -1.59631,0.71598 -0.6379,0.24258 -1.29307,0.4359 -1.94178,0.64744 0,0 -1.82209,-1.23626 -1.82208,-1.23626 z" />
          <path
             style="fill:#000000"
             id="path1148-7"
             d="m 391.91939,176.17219 c 0.5208,-0.33322 1.0618,-0.63378 1.5779,-0.97449 0.41532,-0.24841 0.83292,-0.49283 1.25474,-0.73006 0.48772,-0.30595 0.97917,-0.60047 1.50073,-0.84464 0.38726,-0.13377 0.73788,-0.34793 1.11714,-0.49936 0.24712,-0.11989 0.50028,-0.20842 0.77088,-0.25469 0.15806,-0.0263 0.31135,-0.0738 0.4675,-0.1094 0,0 1.81148,1.26226 1.81148,1.26226 v 0 c -0.16207,0.0277 -0.32115,0.0655 -0.47656,0.12015 -0.26345,0.0253 -0.51438,0.0813 -0.74755,0.21332 -0.38775,0.12628 -0.72728,0.35684 -1.11811,0.47674 -0.52028,0.23576 -1.01949,0.50501 -1.49119,0.82974 -0.41805,0.23527 -0.82552,0.48627 -1.24569,0.71804 -0.5128,0.33499 -1.05753,0.61997 -1.56144,0.96872 0,0 -1.85983,-1.17633 -1.85983,-1.17633 z" />
          <path
             style="fill:#000000"
             id="path1150-6"
             d="m 391.09672,174.53036 c 0.70907,-0.44414 1.40507,-0.90452 2.13617,-1.31228 0.52475,-0.28214 1.06636,-0.53755 1.62054,-0.75691 0.40976,-0.16745 0.81848,-0.33675 1.2327,-0.49302 0.32578,-0.1447 0.65695,-0.27497 0.99259,-0.39478 0,0 1.81883,1.23144 1.81883,1.23144 v 0 c -0.33673,0.11165 -0.66997,0.23587 -0.9912,0.38705 -0.41368,0.15948 -0.827,0.31891 -1.23476,0.4931 -0.5568,0.19705 -1.09288,0.45488 -1.61941,0.72053 -0.73154,0.39268 -1.43461,0.82879 -2.111,1.31138 0,0 -1.84446,-1.18652 -1.84446,-1.18651 z" />
          <path
             style="fill:#000000"
             id="path1152-7"
             d="m 391.77284,173.852 c 0.45886,-0.19584 0.92137,-0.38315 1.3857,-0.56564 0.48201,-0.19447 0.96415,-0.38923 1.45553,-0.55901 0.23587,-0.0806 0.47213,-0.16044 0.70516,-0.249 0.15458,-0.0661 0.31276,-0.12448 0.46551,-0.19476 0.0891,-0.041 0.1797,-0.0783 0.26949,-0.11758 0.0857,-0.0326 0.16995,-0.0686 0.25549,-0.10146 0.0925,-0.0341 0.17845,-0.0829 0.26464,-0.13023 0.0655,-0.04 0.12964,-0.0824 0.19262,-0.12622 0.0311,-0.026 0.0157,-0.013 0.0462,-0.039 0,0 0.33005,0.2063 0.33005,0.2063 v 0 c -0.0316,0.026 -0.0154,0.0123 -0.0485,0.0413 -0.0639,0.0455 -0.13045,0.0873 -0.1968,0.12902 -0.0881,0.0466 -0.17394,0.0986 -0.2669,0.13516 -0.0857,0.0307 -0.16852,0.0689 -0.25439,0.0993 -0.0896,0.0405 -0.18129,0.0762 -0.27126,0.11597 -0.15477,0.0699 -0.31595,0.12503 -0.4712,0.19396 -0.2356,0.0891 -0.47596,0.16522 -0.7151,0.24409 -0.49845,0.16101 -0.98866,0.34575 -1.47319,0.54474 -0.45542,0.18235 -0.91183,0.36409 -1.35007,0.58553 0,0 -0.32292,-0.21248 -0.32292,-0.21248 z" />
          <path
             style="fill:#000000"
             id="path1154-8"
             d="m 396.15043,171.59676 c 0.0948,-0.042 0.18883,-0.0856 0.28571,-0.12263 0.0738,-0.0293 0.1524,-0.0402 0.22944,-0.057 0.0318,-0.008 0.0632,-0.0166 0.0948,-0.0249 0,0 0.32011,0.22078 0.32011,0.22078 v 0 c -0.0321,0.008 -0.064,0.0157 -0.0954,0.026 -0.0765,0.0165 -0.15459,0.0253 -0.22895,0.0507 -0.096,0.0343 -0.18847,0.0771 -0.28038,0.12109 0,0 -0.32535,-0.21408 -0.32535,-0.21408 z" />
          <path
             style="fill:#000000"
             id="path1156-9"
             d="m 396.1533,171.43839 c 0.0914,-0.0439 0.18264,-0.0882 0.27558,-0.12869 0.0405,-0.0209 0.0817,-0.0388 0.12513,-0.0525 0,0 0.32085,0.21995 0.32085,0.21995 v 0 c -0.0436,0.0106 -0.0847,0.0257 -0.12406,0.0476 -0.0927,0.0369 -0.18253,0.0814 -0.2717,0.12603 0,0 -0.3258,-0.21234 -0.3258,-0.21234 z" />
          <path
             style="fill:#000000"
             id="path1158-1"
             d="m 389.55151,172.19189 c 0.18823,-0.0876 0.37037,-0.18747 0.55561,-0.28112 0.14637,-0.0752 0.29395,-0.14736 0.44491,-0.21295 0.13378,-0.0561 0.26836,-0.11032 0.40303,-0.16427 0.10694,-0.0393 0.21438,-0.0772 0.31965,-0.12085 0.14637,-0.0666 0.2973,-0.12234 0.44704,-0.18076 0.12764,-0.0517 0.25357,-0.10756 0.38163,-0.15821 0.11288,-0.0445 0.22653,-0.0868 0.33948,-0.13104 0.10893,-0.0439 0.22012,-0.0817 0.33032,-0.12219 0.10243,-0.038 0.20048,-0.0864 0.30346,-0.12289 0.0718,-0.0285 0.1475,-0.041 0.22308,-0.0542 0.0325,-0.006 0.0643,-0.0144 0.0962,-0.023 0,0 0.32036,0.21998 0.32036,0.21998 v 0 c -0.0325,0.009 -0.0645,0.0197 -0.0978,0.0254 -0.0739,0.0158 -0.15068,0.0195 -0.22136,0.0494 -0.10463,0.0324 -0.20262,0.081 -0.30459,0.12051 -0.10981,0.0412 -0.22119,0.078 -0.33003,0.12176 -0.1133,0.0433 -0.2263,0.0871 -0.33942,0.13091 -0.12926,0.0498 -0.25642,0.10479 -0.38508,0.15613 -0.14935,0.0568 -0.29826,0.11516 -0.44364,0.1816 -0.1049,0.0449 -0.21133,0.0862 -0.31965,0.1221 -0.13581,0.0514 -0.27032,0.10631 -0.40477,0.16119 -0.1503,0.0665 -0.29917,0.13592 -0.44584,0.21016 -0.18566,0.0905 -0.36907,0.18577 -0.54915,0.28697 0,0 -0.32343,-0.21453 -0.32343,-0.21453 z" />
          <path
             style="fill:#000000"
             id="path1160-4"
             d="m 389.65273,172.35022 c 0.22894,-0.0873 0.45417,-0.18379 0.67998,-0.27876 0.17771,-0.0828 0.3628,-0.14764 0.54328,-0.22381 0.13152,-0.0519 0.26195,-0.10647 0.39412,-0.15668 0.12521,-0.0464 0.24789,-0.0991 0.37212,-0.14803 0.12889,-0.0533 0.25878,-0.104 0.38731,-0.15821 0.13325,-0.0492 0.26381,-0.10506 0.39534,-0.15857 0.12394,-0.0497 0.24719,-0.10102 0.37086,-0.15134 0.0822,-0.0314 0.16481,-0.0615 0.24707,-0.0926 0.0625,-0.0258 0.12696,-0.0475 0.18849,-0.0756 0.055,-0.0222 0.10888,-0.0479 0.16526,-0.0665 0.0442,-0.0146 0.085,-0.0368 0.12914,-0.0516 0.0331,-0.009 0.0164,-0.005 0.0501,-0.0111 0,0 0.31886,0.22438 0.31886,0.22438 v 0 c -0.0317,0.004 -0.016,9.9e-4 -0.047,0.007 -0.0456,0.0115 -0.0861,0.0336 -0.12935,0.0516 -0.0563,0.0142 -0.10776,0.0411 -0.16223,0.0607 -0.0613,0.0316 -0.12798,0.051 -0.19151,0.0776 -0.0822,0.0323 -0.16532,0.0619 -0.24876,0.0908 -0.12428,0.0496 -0.24831,0.0999 -0.37229,0.15026 -0.13154,0.0534 -0.26159,0.11047 -0.39546,0.15797 -0.12865,0.0536 -0.25755,0.10647 -0.38615,0.16015 -0.12494,0.0483 -0.24847,0.1 -0.37379,0.14735 -0.13189,0.0501 -0.26199,0.10463 -0.39355,0.15555 -0.18266,0.0753 -0.37072,0.13684 -0.5506,0.219 -0.22439,0.0919 -0.44822,0.18532 -0.66833,0.28715 0,0 -0.32292,-0.21634 -0.32292,-0.21634 z" />
          <path
             style="fill:#000000"
             id="path1162-0"
             d="m 383.86353,169.48003 c 0.13097,-0.0908 0.26763,-0.17193 0.41062,-0.24221 0.17565,-0.0844 0.35808,-0.15353 0.53772,-0.22884 0.20095,-0.0783 0.39428,-0.17392 0.58988,-0.2643 0.18414,-0.0914 0.36533,-0.18841 0.54898,-0.28072 0.13923,-0.071 0.28689,-0.12404 0.43285,-0.17935 0.14506,-0.0553 0.28709,-0.11797 0.43344,-0.16995 0.0769,-0.0239 0.0393,-0.0132 0.11276,-0.0323 0,0 0.4512,0.3122 0.4512,0.3122 v 0 c -0.0725,0.0152 -0.0353,0.006 -0.1115,0.0267 -0.14778,0.0477 -0.2892,0.11098 -0.43331,0.16816 -0.1454,0.0527 -0.29104,0.10748 -0.43059,0.17402 -0.18576,0.0904 -0.36967,0.1844 -0.55309,0.27955 -0.19542,0.0916 -0.38895,0.18726 -0.58978,0.26676 -0.17831,0.0755 -0.35964,0.14426 -0.53435,0.22785 -0.14051,0.0661 -0.27454,0.14455 -0.39988,0.23645 0,0 -0.46495,-0.29409 -0.46495,-0.29409 z" />
          <path
             style="fill:#000000"
             id="path1164-3"
             d="m 383.3958,169.37737 c 0.19808,-0.0478 0.38881,-0.12163 0.57995,-0.19134 0.18978,-0.0746 0.38044,-0.14714 0.56783,-0.2277 0.20636,-0.0838 0.41431,-0.16327 0.62146,-0.24507 0.20141,-0.0899 0.40925,-0.16345 0.61743,-0.23574 0.16576,-0.0617 0.33115,-0.12473 0.49438,-0.1929 0.12066,-0.0482 0.24086,-0.0978 0.36073,-0.14798 0.11739,-0.0423 0.23619,-0.0816 0.35686,-0.11357 0,0 0.45094,0.31113 0.45094,0.31113 v 0 c -0.11963,0.0278 -0.23556,0.0688 -0.35225,0.10676 -0.12043,0.0496 -0.24041,0.1001 -0.3622,0.1463 -0.16383,0.0718 -0.33393,0.12909 -0.50087,0.19317 -0.20797,0.0719 -0.41549,0.14522 -0.61735,0.23325 -0.2065,0.08 -0.4112,0.1645 -0.61719,0.24576 -0.18861,0.081 -0.38058,0.15371 -0.57158,0.22879 -0.19106,0.07 -0.38194,0.14068 -0.57569,0.20297 0,0 -0.45245,-0.31384 -0.45245,-0.31383 z" />
          <path
             style="fill:#000000"
             id="path1166-0"
             d="m 383.10499,169.41163 c 0.30251,-0.10453 0.6027,-0.21647 0.90328,-0.32668 0.35672,-0.13682 0.71543,-0.26837 1.07277,-0.40357 0.25655,-0.1021 0.51882,-0.18926 0.77547,-0.29102 0.1601,-0.057 0.31954,-0.11602 0.48085,-0.16962 0.15209,-0.0418 0.30497,-0.0806 0.45842,-0.11701 0.0565,-0.0136 0.11385,-0.0231 0.17126,-0.0319 0,0 0.44847,0.31662 0.44847,0.31662 v 0 c -0.057,0.007 -0.11402,0.0141 -0.17017,0.0266 -0.15314,0.0342 -0.30534,0.0723 -0.45726,0.11162 -0.16112,0.0532 -0.32016,0.11221 -0.48109,0.16602 -0.25986,0.10011 -0.52672,0.18148 -0.78537,0.28505 -0.35798,0.13545 -0.7185,0.26409 -1.07545,0.40222 -0.29683,0.11104 -0.59528,0.21792 -0.88709,0.34178 0,0 -0.4541,-0.31011 -0.4541,-0.31011 z" />
          <path
             style="fill:#999999;stroke-width:0.588776"
             d="m 306.24512,288.78417 c -1.82884,-2.17345 -3.57541,-7.72172 -3.06764,-9.74484 1.25,-4.98042 7.2785,3.24508 6.7148,9.16192 -0.25818,2.70995 -1.66781,2.93525 -3.64716,0.58292 z"
             id="path1757" />
          <path
             style="fill:#999999;stroke-width:0.588776"
             d="m 328.94499,287.03756 c 0.20416,-2.82253 0.61094,-3.96472 2.04442,-5.74057 0.98425,-1.21932 2.35863,-2.30162 3.05416,-2.4051 1.09438,-0.16281 1.26462,0.0973 1.26462,1.93244 0,2.63884 -1.10338,5.3352 -3.20139,7.82332 -2.56871,3.04635 -3.46559,2.58963 -3.16181,-1.61009 z"
             id="path1833" />
        </g>
        <ellipse
           style="fill:none;fill-opacity:1;stroke:none;stroke-opacity:1"
           id="path923"
           cx="322.94388"
           cy="244.04784"
           rx="190"
           ry="180" />
      </g>
    </pattern>
  </defs>
  <rect
     style="fill:url(#pattern2103);stroke:none;stroke-width:0.266366"
     width="120"
     height="110"
     x="266.22156"
     y="166.85596"
     id="rect1121" />
  <g
     inkscape:groupmode="layer"
     id="layer1"
     inkscape:label="Layer 1" />
</svg>
